# xmcd
#
# Track frame offsets:
#	150
#	16982
#	32727
#	48249
#	63454
#	86280
#	102240
#	116260
#	129731
#	148660
#
# Disc length: 2193 seconds
#
# Revision: 1
# Processed by: cddbd v1.5.1PL0 Copyright (c) Steve Scherf et al.
# Submitted via: MusicWizard 7.0.2
#
DISCID=7e088f0a
DTITLE=Kris Kristofferson - To The Bone
DYEAR=1981
DGENRE=Country
TTITLE0=Magdalene
TTITLE1=Star-Crossed
TTITLE2=Blessing In Disguise
TTITLE3=The Devil To Pay
TTITLE4=Daddy's Song
TTITLE5=Snakebit
TTITLE6=Nobody Loves Anybody Anymore
TTITLE7=Maybe You Heard
TTITLE8=The Last Time
TTITLE9=I'll Take Any Chance I Can With You
EXTD=(c)1981 CBS/Monument\nupc 074648481810\nSony Music Special Products - Monument
EXTT0=
EXTT1=
EXTT2=
EXTT3=
EXTT4=
EXTT5=
EXTT6=
EXTT7=
EXTT8=
EXTT9=
PLAYORDER=
